<?xml version="1.0" standalone="no"?>
<!DOCTYPE svg PUBLIC "-//W3C//DTD SVG 20010904//EN"
 "http://www.w3.org/TR/2001/REC-SVG-20010904/DTD/svg10.dtd">
<svg version="1.0" xmlns="http://www.w3.org/2000/svg"
 width="512.000000pt" height="512.000000pt" viewBox="0 0 512.000000 512.000000"
 preserveAspectRatio="xMidYMid meet">

<g transform="translate(0.000000,512.000000) scale(0.100000,-0.100000)"
fill="#000000" stroke="none">
<path d="M2125 4515 c-177 -28 -344 -88 -364 -131 -16 -35 -14 -47 10 -78 27
-34 55 -33 159 4 144 53 209 64 390 63 145 0 177 -3 261 -25 294 -79 539 -253
749 -533 61 -82 163 -243 204 -322 l17 -33 -1236 0 -1235 0 20 40 c96 189 237
380 386 526 104 101 114 114 114 147 0 26 -6 40 -22 51 -39 28 -73 20 -135
-32 -170 -142 -385 -429 -496 -664 l-32 -68 -45 0 c-64 0 -109 -15 -143 -47
-60 -57 -62 -69 -61 -288 1 -210 18 -380 54 -533 20 -84 19 -102 -3 -102 -7 0
-62 25 -123 56 -99 51 -119 57 -186 62 -97 6 -163 -10 -238 -58 -203 -132
-226 -425 -47 -585 39 -35 188 -118 592 -329 l540 -282 437 -344 c241 -190
466 -360 500 -378 105 -54 119 -53 694 32 281 41 530 78 555 81 66 10 95 24
108 51 16 35 14 48 -10 78 -13 16 -30 26 -47 26 -15 1 -278 -36 -585 -81 -653
-96 -601 -97 -742 11 -423 325 -1474 1162 -1492 1189 -100 149 3 345 182 346
38 0 73 -6 95 -18 19 -9 306 -231 638 -492 433 -341 611 -475 629 -475 13 0
71 29 126 64 348 217 684 377 937 443 143 38 355 44 487 13 235 -54 411 -208
471 -411 13 -40 28 -92 35 -114 9 -29 20 -42 40 -49 37 -13 79 3 95 37 19 39
-14 163 -74 286 -38 76 -62 110 -128 176 -98 99 -186 153 -321 197 -55 17
-101 33 -103 33 -1 1 22 50 51 109 l53 107 60 -63 c34 -35 73 -83 88 -108 16
-25 35 -51 44 -57 12 -10 119 -13 454 -13 l438 0 0 -520 0 -520 -454 0 c-406
0 -467 -2 -587 -20 -149 -23 -173 -36 -171 -90 2 -71 37 -82 187 -59 105 16
181 19 606 19 501 0 539 3 559 40 6 12 10 251 10 633 0 590 -1 616 -19 638
l-19 24 -460 5 -459 5 -62 78 c-35 42 -66 77 -69 77 -4 1 -27 18 -51 39 l-43
39 31 128 c46 195 64 351 65 579 1 219 -1 231 -61 288 -38 36 -80 47 -178 47
l-80 0 -59 115 c-210 410 -518 719 -856 858 -209 87 -458 117 -675 82z m1755
-1224 c5 -11 10 -72 10 -135 l0 -116 -1540 0 -1540 0 0 109 c0 60 4 121 10
135 l10 26 1519 0 c1493 0 1520 0 1531 -19z m-10 -433 c0 -38 -16 -143 -31
-210 l-11 -48 -1478 0 -1479 0 -10 53 c-18 87 -31 170 -31 205 l0 32 1520 0
1520 0 0 -32z m-3371 -433 l73 -35 -22 -33 c-93 -140 -87 -325 16 -445 19 -23
33 -42 30 -42 -2 0 -83 41 -178 90 -120 63 -184 102 -209 129 -99 109 -67 280
64 346 74 37 134 34 226 -10z m3270 -32 c-23 -65 -107 -241 -138 -290 l-21
-33 -94 0 c-274 0 -676 -152 -1142 -432 -77 -46 -142 -84 -146 -86 -4 -2 -258
194 -565 435 -306 241 -564 443 -572 450 -13 10 272 12 1341 13 l1358 0 -21
-57z"/>
<path d="M2232 4135 c-41 -52 -21 -96 55 -125 47 -17 59 -18 81 -8 14 7 33 25
41 39 29 52 -24 106 -114 117 -36 4 -45 1 -63 -23z"/>
<path d="M2945 3870 c-10 -11 -18 -33 -18 -49 0 -47 72 -121 117 -121 7 0 25
9 40 21 39 31 36 78 -10 129 -30 33 -43 40 -74 40 -24 0 -43 -7 -55 -20z"/>
<path d="M1620 3867 c-29 -15 -45 -54 -37 -88 4 -13 20 -41 37 -61 24 -28 39
-38 61 -38 33 0 79 38 79 65 0 26 -38 92 -66 114 -31 24 -40 25 -74 8z"/>
<path d="M2401 3767 c-57 -29 -79 -73 -57 -116 23 -44 56 -52 111 -26 53 26
75 52 75 90 0 24 -7 39 -26 54 -34 26 -48 26 -103 -2z"/>
</g>
</svg>
