<?xml version="1.0" standalone="no"?>
<!DOCTYPE svg PUBLIC "-//W3C//DTD SVG 20010904//EN"
 "http://www.w3.org/TR/2001/REC-SVG-20010904/DTD/svg10.dtd">
<svg version="1.0" xmlns="http://www.w3.org/2000/svg"
 width="400.000000pt" height="400.000000pt" viewBox="0 0 400.000000 400.000000"
 preserveAspectRatio="xMidYMid meet">

<g transform="translate(0.000000,400.000000) scale(0.100000,-0.100000)"
fill="#000000" stroke="none">
<path d="M1769 3565 c-783 -122 -1349 -779 -1349 -1565 0 -875 705 -1580 1580
-1580 875 0 1580 705 1580 1580 0 419 -156 801 -449 1103 -301 311 -705 479
-1141 476 -74 -1 -174 -7 -221 -14z m1021 -1100 l0 -166 -62 3 -63 3 -3 150
c-1 82 0 155 2 162 4 9 26 13 66 13 l60 0 0 -165z m465 65 l39 -40 -159 -160
-160 -160 -45 45 -45 45 155 155 c85 85 160 155 165 155 6 0 29 -18 50 -40z
m-2175 -216 c109 -32 194 -112 224 -211 7 -22 5 -23 -61 -23 -65 0 -69 1 -88
31 -32 49 -98 82 -164 82 -66 0 -106 -18 -149 -67 -112 -128 -21 -326 149
-326 64 0 110 22 153 71 32 38 34 39 100 39 65 0 67 -1 60 -22 -24 -81 -107
-166 -189 -197 -68 -26 -172 -28 -239 -5 -65 22 -157 109 -187 176 -34 78 -34
192 2 268 34 71 70 114 127 147 88 52 172 64 262 37z m430 -314 l0 -330 -70 0
-70 0 0 330 0 330 70 0 70 0 0 -330z m438 171 c67 -34 72 -55 72 -296 l0 -205
-65 0 c-62 0 -65 1 -65 24 l0 23 -42 -21 c-62 -30 -163 -34 -205 -7 -48 30
-67 66 -67 125 0 102 52 149 186 171 110 18 118 22 118 56 0 35 -23 49 -79 49
-43 0 -81 -26 -81 -55 0 -12 -14 -15 -65 -15 -63 0 -65 1 -65 26 0 60 52 123
118 145 15 4 65 7 112 6 64 -3 96 -9 128 -26z m452 -36 l0 -65 -32 0 c-40 0
-91 -29 -115 -67 -15 -22 -19 -54 -22 -180 l-3 -153 -64 0 -64 0 0 255 0 256
62 -3 c60 -3 63 -4 68 -32 l5 -28 20 22 c24 27 91 59 123 60 21 0 22 -4 22
-65z m385 41 c60 -28 127 -98 146 -152 7 -21 13 -64 13 -94 -1 -147 -119 -263
-267 -262 -74 0 -123 19 -178 69 -52 47 -80 103 -86 173 -19 203 190 352 372
266z m595 -161 l0 -65 -165 0 -165 0 0 65 0 65 165 0 165 0 0 -65z"/>
<path d="M1807 1899 c-82 -20 -97 -32 -97 -75 0 -44 34 -68 83 -59 61 12 93
56 85 121 l-3 29 -68 -16z"/>
<path d="M2615 2054 c-65 -33 -91 -111 -59 -179 23 -49 67 -75 126 -75 39 0
54 6 82 31 122 106 -5 296 -149 223z"/>
</g>
</svg>
