<?xml version="1.0" encoding="UTF-8" standalone="no"?>
<!-- Generator: Adobe Illustrator 25.2.1, SVG Export Plug-In . SVG Version: 6.00 Build 0)  -->

<svg
   xmlns:dc="http://purl.org/dc/elements/1.1/"
   xmlns:cc="http://creativecommons.org/ns#"
   xmlns:rdf="http://www.w3.org/1999/02/22-rdf-syntax-ns#"
   xmlns:svg="http://www.w3.org/2000/svg"
   xmlns="http://www.w3.org/2000/svg"
   xmlns:sodipodi="http://sodipodi.sourceforge.net/DTD/sodipodi-0.dtd"
   xmlns:inkscape="http://www.inkscape.org/namespaces/inkscape"
   version="1.1"
   id="Capa_1"
   x="0px"
   y="0px"
   viewBox="0 0 478.29998 284.35997"
   xml:space="preserve"
   sodipodi:docname="logo.svg"
   inkscape:version="0.92.3 (2405546, 2018-03-11)"
   width="478.29999"
   height="284.35999"><metadata
   id="metadata42"><rdf:RDF><cc:Work
       rdf:about=""><dc:format>image/svg+xml</dc:format><dc:type
         rdf:resource="http://purl.org/dc/dcmitype/StillImage" /><dc:title></dc:title></cc:Work></rdf:RDF></metadata><defs
   id="defs167" /><sodipodi:namedview
   id="namedview165"
   pagecolor="#ffffff"
   bordercolor="#000000"
   borderopacity="0.25"
   inkscape:showpageshadow="2"
   inkscape:pageopacity="0.0"
   inkscape:pagecheckerboard="0"
   inkscape:deskcolor="#d1d1d1"
   showgrid="false"
   inkscape:zoom="0.71862119"
   inkscape:cx="230.33947"
   inkscape:cy="-68.311749"
   inkscape:window-width="1280"
   inkscape:window-height="996"
   inkscape:window-x="0"
   inkscape:window-y="28"
   inkscape:window-maximized="1"
   inkscape:current-layer="g68"
   fit-margin-top="0"
   fit-margin-left="0"
   fit-margin-right="0"
   fit-margin-bottom="0" />
<style
   type="text/css"
   id="style2">
	.st0{fill:#2E4C81;}
	.st1{fill:#DA7E2F;}
	.st2{fill:url(#SVGID_1_);}
	.st3{fill:url(#SVGID_2_);}
	.st4{fill:url(#SVGID_3_);}
	.st5{fill:url(#SVGID_4_);}
	.st6{fill:#1295D7;}
</style>
<g
   id="g162"
   transform="translate(-176.69,-118.76)">
	<g
   id="g68">
		<g
   id="g26">
			<path
   class="st0"
   d="m 184.38,345.87 c -1.1,0.35 -2.09,0.84 -2.94,1.44 -0.85,0.6 -1.59,1.3 -2.21,2.08 -0.6,0.76 -1.09,1.58 -1.46,2.42 -0.37,0.83 -0.64,1.68 -0.82,2.53 -0.17,0.84 -0.26,1.65 -0.26,2.4 v 18.9 c 0,1.36 0.18,2.61 0.53,3.72 0.35,1.11 0.83,2.1 1.44,2.96 0.6,0.85 1.3,1.59 2.09,2.2 0.76,0.59 1.57,1.07 2.41,1.44 0.83,0.37 1.68,0.64 2.53,0.82 0.85,0.17 1.65,0.26 2.4,0.26 h 26.79 V 376.85 H 188.1 c -0.45,0 -0.77,-0.09 -0.95,-0.27 -0.18,-0.18 -0.27,-0.5 -0.27,-0.94 V 356.8 c 0,-0.28 0.03,-0.79 0.25,-1.01 0.21,-0.21 0.64,-0.25 0.96,-0.25 h 26.79 V 345.35 H 188.1 c -1.37,-0.01 -2.62,0.17 -3.72,0.52 z"
   id="path4"
   inkscape:connector-curvature="0"
   style="fill:#2e4c81" />
			<path
   class="st0"
   d="m 256.3,349.82 c -1.58,-1.57 -3.47,-2.81 -5.61,-3.69 -2.14,-0.88 -4.5,-1.33 -7.01,-1.33 h -9.45 c -2.51,0 -4.87,0.45 -7.02,1.33 -2.16,0.88 -4.05,2.12 -5.63,3.69 -1.58,1.57 -2.83,3.46 -3.72,5.63 -0.89,2.16 -1.34,4.54 -1.34,7.07 v 7.36 c 0,2.55 0.45,4.93 1.34,7.08 0.89,2.16 2.14,4.05 3.72,5.62 1.58,1.58 3.48,2.82 5.63,3.7 2.15,0.87 4.51,1.31 7.02,1.31 h 9.45 c 2.51,0 4.87,-0.44 7.01,-1.31 2.15,-0.87 4.04,-2.12 5.62,-3.69 1.58,-1.58 2.82,-3.47 3.71,-5.63 0.88,-2.15 1.33,-4.53 1.33,-7.08 v -7.36 c 0,-2.52 -0.45,-4.9 -1.33,-7.06 -0.89,-2.18 -2.14,-4.07 -3.72,-5.64 z m -22.07,5.17 h 9.45 c 1.13,0 2.18,0.18 3.1,0.55 0.91,0.36 1.69,0.86 2.32,1.49 0.65,0.65 1.13,1.41 1.49,2.32 0.36,0.93 0.55,1.99 0.55,3.16 v 7.36 c 0,1.17 -0.18,2.23 -0.55,3.16 -0.36,0.92 -0.85,1.68 -1.5,2.32 -0.65,0.64 -1.44,1.14 -2.34,1.5 -0.93,0.36 -1.98,0.55 -3.13,0.55 h -9.4 c -1.15,0 -2.21,-0.18 -3.13,-0.55 -0.91,-0.36 -1.7,-0.86 -2.34,-1.5 -0.65,-0.65 -1.14,-1.4 -1.5,-2.32 -0.36,-0.92 -0.55,-1.99 -0.55,-3.16 v -7.36 c 0,-1.17 0.18,-2.23 0.55,-3.16 0.36,-0.91 0.85,-1.67 1.5,-2.32 0.65,-0.64 1.43,-1.14 2.34,-1.5 0.93,-0.35 1.98,-0.54 3.14,-0.54 z"
   id="path6"
   inkscape:connector-curvature="0"
   style="fill:#2e4c81" />
			<path
   class="st0"
   d="m 296.52,370.07 -22.75,-23.73 c -0.73,-0.76 -1.62,-1.24 -2.65,-1.44 -1,-0.19 -1.99,-0.09 -3.01,0.32 -0.89,0.41 -1.63,1.03 -2.19,1.85 -0.59,0.85 -0.89,1.81 -0.89,2.86 v 37.13 h 10.19 v -24.73 l 22.74,23.74 c 0.51,0.54 1.11,0.93 1.78,1.18 0.61,0.23 1.24,0.34 1.86,0.34 0.7,0 1.36,-0.13 1.99,-0.39 0.62,-0.26 1.17,-0.63 1.63,-1.08 0.45,-0.45 0.82,-1 1.09,-1.61 0.28,-0.63 0.42,-1.32 0.42,-2.04 v -37.13 h -10.19 v 24.73 z"
   id="path8"
   inkscape:connector-curvature="0"
   style="fill:#2e4c81" />
			<path
   class="st0"
   d="m 349.65,366.6 c -0.67,-0.97 -1.45,-1.81 -2.32,-2.5 -0.85,-0.67 -1.75,-1.24 -2.69,-1.68 -0.94,-0.44 -1.89,-0.78 -2.85,-0.99 -0.94,-0.21 -1.85,-0.33 -2.79,-0.35 h -16.06 c -0.87,0 -1.51,-0.22 -1.94,-0.67 -0.45,-0.47 -0.67,-1.15 -0.67,-2.07 0,-0.91 0.23,-1.6 0.69,-2.11 0.27,-0.3 0.77,-0.69 1.92,-0.69 h 25.37 v -10.19 h -25.37 c -1.29,0 -2.67,0.23 -4.12,0.68 -1.49,0.46 -2.9,1.21 -4.18,2.24 -1.29,1.04 -2.37,2.4 -3.21,4.03 -0.86,1.66 -1.29,3.69 -1.29,6.04 0,2.34 0.43,4.38 1.29,6.05 0.84,1.65 1.93,3.01 3.22,4.04 1.27,1.02 2.67,1.76 4.17,2.23 1.45,0.45 2.84,0.68 4.12,0.68 H 339 c 0.43,0 0.82,0.07 1.16,0.21 0.31,0.12 0.56,0.29 0.77,0.52 0.22,0.24 0.39,0.52 0.51,0.85 0.13,0.36 0.2,0.77 0.2,1.22 0,0.91 -0.22,1.58 -0.68,2.07 -0.43,0.46 -1.07,0.68 -1.96,0.68 h -28.54 v 10.19 H 339 c 0.86,0 1.79,-0.1 2.73,-0.3 0.96,-0.2 1.92,-0.52 2.85,-0.94 0.93,-0.43 1.84,-0.98 2.7,-1.64 0.9,-0.69 1.7,-1.54 2.36,-2.52 0.66,-0.97 1.19,-2.09 1.59,-3.33 0.4,-1.25 0.6,-2.67 0.6,-4.2 0,-1.53 -0.2,-2.94 -0.58,-4.18 -0.4,-1.28 -0.93,-2.4 -1.6,-3.37 z"
   id="path10"
   inkscape:connector-curvature="0"
   style="fill:#2e4c81" />
			<polygon
   class="st0"
   points="366.44,387.05 376.63,387.05 376.63,355.53 392.02,355.53 392.02,345.34 351.03,345.34 351.03,355.53 366.44,355.53 "
   id="polygon12"
   style="fill:#2e4c81" />
			<path
   class="st0"
   d="m 427.43,373.06 c 1.07,-0.49 2.1,-1.12 3.07,-1.87 1,-0.77 1.89,-1.72 2.65,-2.8 0.76,-1.09 1.37,-2.35 1.81,-3.76 0.44,-1.4 0.66,-3 0.66,-4.75 v -4.46 c 0,-1.01 -0.17,-2.1 -0.51,-3.23 -0.35,-1.18 -0.93,-2.28 -1.73,-3.29 -0.81,-1.02 -1.86,-1.88 -3.13,-2.55 -1.3,-0.68 -2.88,-1.03 -4.69,-1.03 h -26.5 c -0.71,0 -1.39,0.13 -2.01,0.39 -0.63,0.26 -1.19,0.64 -1.65,1.12 -0.45,0.47 -0.81,1.02 -1.07,1.63 -0.26,0.62 -0.39,1.29 -0.39,1.99 v 36.59 h 10.19 v -12.59 h 5.61 l 14.55,12.59 H 440 l -15.14,-13.08 c 0.86,-0.2 1.72,-0.51 2.57,-0.9 z m -23.3,-17.53 h 21.3 v 4.36 c 0,0.7 -0.11,1.31 -0.31,1.82 -0.2,0.5 -0.48,0.91 -0.84,1.25 -0.38,0.36 -0.85,0.65 -1.38,0.87 -0.57,0.23 -1.22,0.38 -1.8,0.43 h -16.98 v -8.73 z"
   id="path14"
   inkscape:connector-curvature="0"
   style="fill:#2e4c81" />
			<path
   class="st0"
   d="M 470.16,376.86 H 459.5 c -0.19,0 -0.6,-0.03 -1.21,-0.09 -0.59,-0.06 -1.3,-0.2 -2.11,-0.42 -0.8,-0.22 -1.65,-0.57 -2.55,-1.03 -0.83,-0.43 -1.61,-1.04 -2.32,-1.81 -0.71,-0.77 -1.3,-1.75 -1.77,-2.92 -0.47,-1.16 -0.7,-2.64 -0.7,-4.4 v -20.86 h -10.19 v 20.86 c 0,2.4 0.29,4.62 0.87,6.59 0.58,1.98 1.39,3.77 2.42,5.32 1.02,1.55 2.24,2.91 3.61,4.04 1.35,1.12 2.82,2.05 4.35,2.78 1.53,0.72 3.13,1.26 4.77,1.61 1.62,0.34 3.25,0.52 4.84,0.52 h 15.73 c 0.7,0 1.37,-0.13 1.99,-0.39 0.61,-0.26 1.16,-0.62 1.63,-1.07 0.48,-0.47 0.85,-1.02 1.11,-1.65 0.26,-0.62 0.39,-1.3 0.39,-2.01 v -36.59 h -10.19 v 31.52 z"
   id="path16"
   inkscape:connector-curvature="0"
   style="fill:#2e4c81" />
			<path
   class="st0"
   d="m 492.44,345.87 c -1.1,0.35 -2.09,0.84 -2.95,1.44 -0.85,0.6 -1.59,1.3 -2.21,2.08 -0.6,0.76 -1.09,1.58 -1.47,2.42 -0.37,0.83 -0.64,1.68 -0.81,2.53 -0.17,0.84 -0.26,1.65 -0.26,2.41 v 18.9 c 0,1.36 0.18,2.61 0.53,3.72 0.35,1.11 0.83,2.1 1.44,2.97 0.6,0.85 1.31,1.59 2.09,2.2 0.76,0.58 1.57,1.07 2.41,1.44 0.83,0.37 1.68,0.64 2.53,0.82 0.84,0.17 1.65,0.26 2.4,0.26 h 26.79 v -10.19 h -26.79 c -0.45,0 -0.77,-0.09 -0.94,-0.27 -0.18,-0.18 -0.27,-0.5 -0.27,-0.94 V 356.8 c 0,-0.28 0.03,-0.79 0.26,-1.01 0.21,-0.21 0.64,-0.25 0.96,-0.25 h 26.79 v -10.19 h -26.79 c -1.37,-0.01 -2.61,0.17 -3.71,0.52 z"
   id="path18"
   inkscape:connector-curvature="0"
   style="fill:#2e4c81" />
			<path
   class="st1"
   d="m 559.82,373.06 c 1.07,-0.49 2.1,-1.12 3.07,-1.87 1,-0.77 1.89,-1.72 2.65,-2.8 0.76,-1.09 1.37,-2.35 1.81,-3.76 0.44,-1.4 0.66,-3 0.66,-4.75 v -4.46 c 0,-1.01 -0.17,-2.1 -0.51,-3.23 -0.35,-1.18 -0.93,-2.28 -1.73,-3.29 -0.81,-1.02 -1.86,-1.88 -3.13,-2.55 -1.3,-0.68 -2.88,-1.03 -4.69,-1.03 h -26.5 c -0.71,0 -1.39,0.13 -2.01,0.39 -0.63,0.26 -1.19,0.64 -1.65,1.12 -0.45,0.47 -0.81,1.02 -1.06,1.62 -0.26,0.62 -0.4,1.29 -0.4,1.99 v 36.59 h 10.19 v -12.59 h 5.61 l 14.55,12.59 h 15.71 l -15.14,-13.08 c 0.87,-0.19 1.73,-0.5 2.57,-0.89 z m -23.29,-17.53 h 21.3 v 4.36 c 0,0.7 -0.1,1.31 -0.31,1.83 -0.2,0.5 -0.47,0.91 -0.84,1.25 -0.38,0.36 -0.85,0.65 -1.38,0.87 -0.57,0.23 -1.22,0.38 -1.8,0.43 h -16.97 z"
   id="path20"
   inkscape:connector-curvature="0"
   style="fill:#da7e2f" />
			<path
   class="st1"
   d="m 574.77,345.73 c -0.63,0.26 -1.19,0.64 -1.65,1.11 -0.46,0.47 -0.82,1.02 -1.07,1.63 -0.26,0.62 -0.39,1.29 -0.39,1.99 v 25.19 c 0,2.06 0.39,3.86 1.16,5.32 0.75,1.44 1.72,2.63 2.86,3.54 1.14,0.9 2.39,1.57 3.73,1.96 1.29,0.38 2.51,0.58 3.63,0.58 h 26.79 v -10.19 h -26.74 c -0.33,0 -0.78,-0.04 -0.98,-0.25 -0.21,-0.21 -0.26,-0.64 -0.26,-0.96 v -4.33 h 24.84 v -10.25 h -24.84 v -5.54 h 27.98 v -10.19 h -33.05 c -0.71,0 -1.39,0.13 -2.01,0.39 z"
   id="path22"
   inkscape:connector-curvature="0"
   style="fill:#da7e2f" />
			<path
   class="st1"
   d="m 653.65,355.98 c -0.89,-2.17 -2.15,-4.06 -3.72,-5.63 -1.58,-1.57 -3.47,-2.81 -5.63,-3.69 -2.15,-0.88 -4.52,-1.33 -7.03,-1.33 h -18.85 c -0.71,0 -1.39,0.13 -2.01,0.39 -0.63,0.26 -1.19,0.64 -1.65,1.12 -0.45,0.47 -0.81,1.02 -1.06,1.62 -0.26,0.62 -0.4,1.29 -0.4,1.99 v 31.47 c 0,0.72 0.13,1.4 0.39,2.01 0.26,0.62 0.62,1.18 1.08,1.64 0.46,0.46 1.01,0.82 1.63,1.08 0.62,0.26 1.3,0.4 2.02,0.4 h 18.85 c 2.51,0 4.87,-0.45 7.03,-1.33 2.16,-0.88 4.05,-2.12 5.63,-3.69 1.58,-1.57 2.83,-3.45 3.72,-5.61 0.89,-2.15 1.34,-4.54 1.34,-7.09 v -6.28 c 0,-2.53 -0.45,-4.9 -1.34,-7.07 z m -16.38,20.88 h -13.78 v -21.33 h 13.78 c 1.15,0 2.21,0.18 3.13,0.55 0.91,0.35 1.7,0.86 2.34,1.5 0.64,0.63 1.14,1.41 1.5,2.32 0.36,0.94 0.55,2 0.55,3.15 v 6.28 c 0,1.17 -0.18,2.23 -0.55,3.16 -0.35,0.9 -0.86,1.68 -1.5,2.32 -0.66,0.65 -1.42,1.14 -2.35,1.5 -0.91,0.37 -1.96,0.55 -3.12,0.55 z"
   id="path24"
   inkscape:connector-curvature="0"
   style="fill:#da7e2f" />
		</g>
		<rect
   x="178.28999"
   y="400"
   class="st1"
   width="475.09"
   height="3.1199999"
   id="rect28"
   style="fill:#da7e2f" />
		<g
   id="g66">
			<g
   id="g44">
				<linearGradient
   id="SVGID_1_"
   gradientUnits="userSpaceOnUse"
   x1="346.59409"
   y1="125.4844"
   x2="344.80441"
   y2="241.2598">
					<stop
   offset="0"
   style="stop-color:#1295D7"
   id="stop30" />
					<stop
   offset="1"
   style="stop-color:#2E4C81"
   id="stop32" />
				</linearGradient>
				<path
   class="st2"
   d="m 405.09,259.03 c 0.53,-2.94 0.98,-5.97 1.34,-9.11 l 12.85,-131.16 h -61.3 -23.76 l -5.1,50.98 h 23.76 l -8.42,84.11 c -0.01,0.02 -0.02,0.04 -0.02,0.07 -3.79,12.38 -11.31,18.72 -22.55,19.01 l -45.68,0.15 -5.24,49.81 h 61.99 c 1.57,-0.08 3.1,-0.19 4.62,-0.33 37.57,-3.34 60.01,-24.16 67.32,-62.43 0.06,-0.36 0.13,-0.73 0.19,-1.1 z"
   id="path35"
   inkscape:connector-curvature="0"
   style="fill:url(#SVGID_1_)" />
				<linearGradient
   id="SVGID_2_"
   gradientUnits="userSpaceOnUse"
   x1="485.88062"
   y1="123.9382"
   x2="484.6524"
   y2="203.39101">
					<stop
   offset="0"
   style="stop-color:#1295D7"
   id="stop37" />
					<stop
   offset="1"
   style="stop-color:#2E4C81"
   id="stop39" />
				</linearGradient>
				<path
   class="st3"
   d="m 499.38,118.76 h -76.76 v 0 l -4.99,50.98 v 0 h 1.68 71.05 c 12.24,1.85 17.5,8.18 15.8,19.01 -1.7,10.83 -8.13,16.19 -19.3,16.1 l -67.55,0.26 v 0.03 h -5.15 l -2.15,21.95 -3.13,31.94 h 80.16 c 42.24,-2.52 65.66,-25.97 70.28,-70.35 4.61,-44.38 -15.37,-67.68 -59.94,-69.92 z"
   id="path42"
   inkscape:connector-curvature="0"
   style="fill:url(#SVGID_2_)" />
			</g>
			<g
   id="g53">
				<linearGradient
   id="SVGID_3_"
   gradientUnits="userSpaceOnUse"
   x1="407.57971"
   y1="315.03381"
   x2="568.34613"
   y2="216.1369">
					<stop
   offset="0.2536"
   style="stop-color:#D35C32"
   id="stop46" />
					<stop
   offset="1"
   style="stop-color:#E39B31"
   id="stop48" />
				</linearGradient>
				<path
   class="st4"
   d="m 550.05,241.32 3.41,-6.09 4.54,-8.14 -31.02,-19.82 c 0,0 0,0 0,0.01 3.53,7.62 6,16.49 7.71,24.83 0,0.02 0,0.03 0,0.05 0.01,0.01 0.01,0.01 0.02,0.02 3.24,15.85 3.79,29.8 3.79,29.8 l 5.76,-10.31 c 4.84,17.65 -2.66,31.88 -21.65,38.96 -2.63,0.99 -5.52,1.85 -8.54,2.57 -3.99,0.95 -8.12,1.72 -12.34,2.33 -2.44,0.36 -4.91,0.66 -7.42,0.92 -0.13,0.01 -0.26,0.03 -0.39,0.04 -0.54,0.06 -1.07,0.11 -1.62,0.16 -3.05,0.26 -6.18,0.42 -9.33,0.51 -2.08,0.06 -4.17,0.11 -6.29,0.09 -4.2,-0.03 -8.5,-0.23 -12.87,-0.56 -2.61,-0.2 -5.26,-0.47 -7.93,-0.79 -15.91,-1.9 -32.74,-5.92 -50.24,-12.3 -2.8,-1.03 -5.63,-2.13 -8.48,-3.28 -4.84,-1.96 -9.7,-4.05 -14.63,-6.38 l -11.33,0.52 c 8.39,4.17 17.06,7.89 25.83,11.24 2.84,1.08 5.69,2.12 8.55,3.11 16.62,5.77 33.52,10.02 49.81,12.64 2.54,0.41 5.09,0.82 7.6,1.15 2.03,0.27 4.02,0.46 6.03,0.68 5.05,0.54 10.01,0.94 14.86,1.15 3.14,0.12 6.22,0.19 9.25,0.17 11.8,-0.04 22.76,-1.16 32.38,-3.43 3.38,-0.8 6.56,-1.77 9.49,-2.87 27.78,-10.37 31.73,-32.21 15.05,-56.98 z"
   id="path51"
   inkscape:connector-curvature="0"
   style="fill:url(#SVGID_3_)" />
			</g>
			<g
   id="g64">
				<g
   id="g62">
					<linearGradient
   id="SVGID_4_"
   gradientUnits="userSpaceOnUse"
   x1="291.09961"
   y1="140.97749"
   x2="330.50491"
   y2="257.0932">
						<stop
   offset="0.0668"
   style="stop-color:#D35C32"
   id="stop55" />
						<stop
   offset="1"
   style="stop-color:#E39B31"
   id="stop57" />
					</linearGradient>
					<path
   class="st5"
   d="m 360.25,263.62 -2.65,-3.37 -3.74,-4.77 -5.55,-7.07 -0.85,-1.08 -2.09,-2.67 -17.52,-22.34 -0.32,-0.41 -1.43,-1.81 -0.2,-0.26 -0.18,-0.24 -2.37,-3.01 -1.86,12.38 -1.08,7.19 v 0 c -0.29,-0.22 -0.53,-0.45 -0.81,-0.68 -1.69,-1.36 -3.35,-2.73 -4.91,-4.09 -34.89,-30.46 -39.18,-60.61 -6.38,-72.83 2.64,-0.99 5.52,-1.84 8.54,-2.57 3.24,-0.76 6.68,-1.34 10.25,-1.79 l 0.91,-9.12 c -8.14,0.36 -15.74,1.32 -22.61,2.95 -3.39,0.8 -6.6,1.76 -9.53,2.85 -39.61,14.78 -30.72,52.96 17.44,89.69 1.86,1.42 3.81,2.84 5.79,4.26 v 0.01 l -1.04,6.89 -1.44,9.54 8.13,0.79 5.45,0.53 h 0.02 l 1.36,0.13 4.35,0.42 3.98,0.39 6.28,0.61 5.05,0.48 h 0.01 l 1.39,0.14 9.16,0.88 z"
   id="path60"
   inkscape:connector-curvature="0"
   style="fill:url(#SVGID_4_)" />
				</g>
			</g>
		</g>
	</g>
	
</g>
</svg>