<svg id="Capa_1" data-name="Capa 1" xmlns="http://www.w3.org/2000/svg" viewBox="0 0 541.01 444.22"><defs><style>.cls-1,.cls-3{fill:#fff;}.cls-1,.cls-2,.cls-5{stroke:#231f20;stroke-miterlimit:10;stroke-width:3px;}.cls-2{fill:#ffcf01;}.cls-4{fill:#231f20;}.cls-5{fill:#130c0e;}</style></defs><path class="cls-1" d="M75.81,376.3A41.87,41.87,0,0,1,45.07,389,42,42,0,0,1,14.23,376.3a43.6,43.6,0,0,1,0-61.58A42,42,0,0,1,45.07,302a41.88,41.88,0,0,1,30.74,12.74L63.48,327.05a25.14,25.14,0,0,0-18.41-7.66,25.23,25.23,0,0,0-18.5,7.66,26.06,26.06,0,0,0,0,36.91,25.19,25.19,0,0,0,18.5,7.66A25.11,25.11,0,0,0,63.48,364Z"/><path class="cls-1" d="M86.06,354.21V304.47h17.41v49.74a17.37,17.37,0,0,0,29.69,12.29,16.76,16.76,0,0,0,5.13-12.29V304.47h17.4v49.74A34.81,34.81,0,0,1,120.88,389a34.81,34.81,0,0,1-34.82-34.82Z"/><path class="cls-1" d="M178.29,361.37q8,10.26,18.1,10.25a18.73,18.73,0,0,0,9.65-2.24,7.3,7.3,0,0,0,3.78-6.71c-.19-2.65-1.69-4.64-4.47-6L186.15,352a30.2,30.2,0,0,1-14.23-9,20.45,20.45,0,0,1-5.37-13.68q0-12.43,8.7-19.89A30.17,30.17,0,0,1,195.5,302q17.7,0,29.25,12.94l-13.53,10.84a19.34,19.34,0,0,0-14.83-6.37q-6,0-9.2,2.49a7.36,7.36,0,0,0-3.23,6q0,5,6.76,7.86l19.3,4.57q17.22,6.48,17.21,22.39a25.22,25.22,0,0,1-7.95,18.45q-8,7.9-22.89,7.91-20.28,0-32.43-17.91Z"/><path class="cls-1" d="M289.8,304.47v17.41H269.9v64.66H252.49V321.88H232.6V304.47Z"/><path class="cls-1" d="M368.06,314.72A43.58,43.58,0,1,1,337.32,302,41.88,41.88,0,0,1,368.06,314.72Zm-30.74,4.67a26.15,26.15,0,1,0,18.41,7.66A25.22,25.22,0,0,0,337.32,319.39Z"/><path class="cls-1" d="M390.66,386.54V304.47h33.62a41,41,0,0,1,0,82.07Zm17.41-64.66v47.25h16.21a23.63,23.63,0,0,0,0-47.25Z"/><path class="cls-1" d="M508.56,355.7v30.84H491.15V355.7L461.3,304.47h20.2l18.4,31.64,18.41-31.64H538.4Z"/><path class="cls-2" d="M408.28,89.15q-11.94-8.54-34.43-8.54H244.61l-3.72,23.71h123q9.6,0,14.21,3t4.62,9.59q-.17,10.13-7.06,14.39t-17.19,4.27H316.12a21.57,21.57,0,0,0-21.3,18.2L287.9,197.6h36.71l6.06-38.36h31.19q27.18,0,42.77-11.94t15.6-33.91Q420.23,97.7,408.28,89.15Z"/><path class="cls-2" d="M253.74,107.63l-7,43.94q-3.5,22.5-24.76,22.49a35,35,0,0,1-17.09-4l-4.53.52-3.84,26q11.86,3.31,31.91,3.32,47.43,0,54.52-44.74l7.52-47.5Z"/><path class="cls-3" d="M231.78,286.66c-29.25-16.17-51.29-38-65.5-64.87-11.37-21.49-17.77-46.21-19-73.48-2.15-46.35,11.52-84.59,11.65-85l.36-1h1.05c.82,0,83.33-1.05,130.48-57.56l1.6-1.92.94,2.31c23,56.16,104.72,57.17,105.55,57.17l14.67.07-14.38,2.9a204.59,204.59,0,0,1-40.24,4.34c-49.66,0-69.68-22.51-74.24-28.69-7,6.29-41.68,34.68-108.24,43.42-16.81,65,.69,109.53,18.38,135.5s38.92,38.93,42.65,41.1c49.92-17.93,95-51.38,95.41-51.71l9.22-6.89-7.15,9c-35.56,44.91-101.17,75-101.83,75.31l-.69.31Z"/><path class="cls-4" d="M291.94,5.75c23.63,57.73,106.93,58.1,106.93,58.1a201.72,201.72,0,0,1-39.94,4.31c-56.13,0-74-29.47-74-29.47S250.94,73.37,175.25,83c-33.67,128,62.09,179.59,62.09,179.59,51-18.16,96.45-52.15,96.45-52.15C298,255.63,232.51,285.35,232.51,285.35c-127.11-70.29-72.2-221.5-72.2-221.5s83.46-.37,131.63-58.1M292.83,0l-3.19,3.83C265.26,33.05,231.39,47,207.28,53.55c-26.21,7.13-46.77,7.3-47,7.3h-2.09l-.72,2c-.56,1.56-13.91,38.9-11.74,85.55,1.27,27.5,7.73,52.43,19.2,74.11,14.35,27.13,36.6,49.17,66.11,65.49l1.32.73,1.37-.63a355.63,355.63,0,0,0,37.59-20.69c19.22-12.06,46.07-31.39,64.8-55l14.28-18L332,208.08c-.45.33-44.93,33.35-94.35,51.26-4.92-2.94-25-15.88-41.65-40.42-17.38-25.56-34.56-69.32-18.34-133.17,38.5-5.2,65.94-16.9,82.28-25.89a141.79,141.79,0,0,0,24.59-16.7A62.81,62.81,0,0,0,299.26,56c10.82,6.94,29.94,15.21,59.67,15.21a205.94,205.94,0,0,0,40.53-4.37L428.22,61l-29.34-.13A170.71,170.71,0,0,1,355,53.54c-30.57-9.44-50.86-25.9-60.28-48.93L292.83,0Z"/><path class="cls-1" d="M178.54,136.1a202.62,202.62,0,0,1,7-43.59s13.64-.94,43.69-9.3c0,0-6,5.54-38.1,14.19C191.09,97.4,181.68,117.31,178.54,136.1Z"/><path class="cls-1" d="M239,249.06a152.34,152.34,0,0,1-25.49-20s20.5,10.64,25.87,13.79c0,0,9.85-.63,36-9.52C275.34,233.37,258.33,241.91,239,249.06Z"/><circle class="cls-2" cx="337.27" cy="345.51" r="11.75"/><polygon class="cls-2" points="533.51 405.66 6.39 405.66 21.15 442.72 518.75 442.72 533.51 405.66"/><path class="cls-5" d="M39.72,415.41h6.71a8.32,8.32,0,0,1,2.85.45,4.91,4.91,0,0,1,2,1.27A5.5,5.5,0,0,1,52.38,419a7.36,7.36,0,0,1,.37,2.42,6.78,6.78,0,0,1-.47,2.6,4.8,4.8,0,0,1-1.36,1.85A5.84,5.84,0,0,1,48.83,427a9.69,9.69,0,0,1-2.73.37H43.26v6.21H39.72Zm5.93,8.76a3.71,3.71,0,0,0,2.51-.75,2.55,2.55,0,0,0,.87-2,2.6,2.6,0,0,0-.84-2,3.48,3.48,0,0,0-2.39-.75H43.26v5.57Z"/><path class="cls-5" d="M80.72,433.57l-4.07-6.21H74.56v6.21H71V415.41h6.86a8.2,8.2,0,0,1,2.83.45,5,5,0,0,1,2,1.27A5.5,5.5,0,0,1,83.83,419a7.1,7.1,0,0,1,.38,2.42,6.68,6.68,0,0,1-.45,2.53,4.87,4.87,0,0,1-1.28,1.83,5.57,5.57,0,0,1-2,1.11V427L85,433.57Zm-6.16-9.39h2.52a3.8,3.8,0,0,0,2.53-.75,2.54,2.54,0,0,0,.88-2,2.57,2.57,0,0,0-.85-2,3.53,3.53,0,0,0-2.41-.75H74.56Z"/><path class="cls-5" d="M103.18,415.41h3.62v18.16h-3.62Z"/><path class="cls-5" d="M141.46,415.41l-6.72,18.16h-3.17l-6.74-18.16h3.89l4.4,13h0l4.45-13Z"/><path class="cls-5" d="M167.69,429.94h-7l-1.24,3.63h-3.75l6.73-18.16h3.47l6.75,18.16h-3.76Zm-1.05-3.07-2.44-7.13h0l-2.42,7.13Z"/><path class="cls-5" d="M192.68,418.63h-5v-3.22H201.3v3.22h-5v14.94h-3.58Z"/><path class="cls-5" d="M219.36,415.41H231v3.22h-8.06V423h6.46v3.17h-6.46v4.2h8.6v3.21H219.36Z"/><path class="cls-5" d="M274.06,433.07a9.39,9.39,0,0,1-3.1-2.14l2.16-2.66a6.85,6.85,0,0,0,1.08,1,6.58,6.58,0,0,0,1.16.71,6,6,0,0,0,1.16.41,4.84,4.84,0,0,0,1.12.14,3.61,3.61,0,0,0,1.44-.25,1.93,1.93,0,0,0,.88-.67,1.78,1.78,0,0,0,.29-1,2,2,0,0,0-.12-.72,1.79,1.79,0,0,0-.35-.54,2.31,2.31,0,0,0-.64-.47,6.18,6.18,0,0,0-.86-.41c-.3-.13-.7-.27-1.19-.44s-.83-.3-1.17-.43-.71-.3-1.11-.51a8.69,8.69,0,0,1-1-.61,6.35,6.35,0,0,1-.87-.74,4.26,4.26,0,0,1-.7-.91,4.67,4.67,0,0,1-.43-1.11,4.87,4.87,0,0,1-.17-1.34,4.73,4.73,0,0,1,.77-2.62,5.39,5.39,0,0,1,2.11-1.87,6.58,6.58,0,0,1,2.95-.7,9.24,9.24,0,0,1,6.12,2.28l-2.08,2.71a6.53,6.53,0,0,0-4-1.79,2.43,2.43,0,0,0-1.57.49,1.67,1.67,0,0,0-.62,1.34,1.36,1.36,0,0,0,.13.61,1.63,1.63,0,0,0,.33.49,2.44,2.44,0,0,0,.63.45c.28.15.56.29.84.41s.66.28,1.13.46c1.51.59,2.52,1,3,1.28a4.79,4.79,0,0,1,2.26,2.29,5.21,5.21,0,0,1,.35,2,5.54,5.54,0,0,1-.39,2.11,4.79,4.79,0,0,1-1,1.58,6.16,6.16,0,0,1-1.48,1.07,6.71,6.71,0,0,1-1.73.64,8.43,8.43,0,0,1-1.81.19A9,9,0,0,1,274.06,433.07Z"/><path class="cls-5" d="M302.39,415.41H314v3.22h-8.07V423h6.47v3.17h-6.47v4.2h8.6v3.21H302.39Z"/><path class="cls-5" d="M338.13,433.39a8.74,8.74,0,0,1-4.55-3,8.08,8.08,0,0,1-1.34-2.58,10.25,10.25,0,0,1-.49-3.25,11.09,11.09,0,0,1,.39-3A8.39,8.39,0,0,1,333.3,419a8.61,8.61,0,0,1,1.88-2,8.28,8.28,0,0,1,2.58-1.33,10.58,10.58,0,0,1,3.24-.47,8.89,8.89,0,0,1,5,1.49,9.64,9.64,0,0,1,2.2,2l-2.63,2.25a6.78,6.78,0,0,0-2.05-1.67,5.3,5.3,0,0,0-2.55-.64,6.16,6.16,0,0,0-1.3.13,5.24,5.24,0,0,0-1.17.41,4.91,4.91,0,0,0-1,.65,5,5,0,0,0-.84.88,5.67,5.67,0,0,0-1,2.38,7.08,7.08,0,0,0-.14,1.48,6.37,6.37,0,0,0,.69,3,5.12,5.12,0,0,0,1.95,2.07,5.73,5.73,0,0,0,5.41.12,6.38,6.38,0,0,0,2-1.68l2.63,2.26a9.3,9.3,0,0,1-3.1,2.51,8.93,8.93,0,0,1-4.13.94A10.86,10.86,0,0,1,338.13,433.39Z"/><path class="cls-5" d="M370.48,433.27a6.3,6.3,0,0,1-3.8-3.92,9.42,9.42,0,0,1-.53-3.29V415.41h3.6v10.41a6.15,6.15,0,0,0,.43,2.35,3.67,3.67,0,0,0,1.28,1.64,3.67,3.67,0,0,0,4.75-.63,5,5,0,0,0,1.05-3.36V415.41h3.59v10.65a9.13,9.13,0,0,1-.86,4.09,6.29,6.29,0,0,1-2.54,2.69,7.94,7.94,0,0,1-4,.94A8.45,8.45,0,0,1,370.48,433.27Z"/><path class="cls-5" d="M409.67,433.57l-4.07-6.21h-2.09v6.21H400V415.41h6.86a8.2,8.2,0,0,1,2.83.45,5,5,0,0,1,2,1.27,5.5,5.5,0,0,1,1.13,1.91,7.1,7.1,0,0,1,.38,2.42,6.68,6.68,0,0,1-.45,2.53,5,5,0,0,1-1.27,1.83,5.7,5.7,0,0,1-2,1.11V427l4.49,6.59Zm-6.16-9.39H406a3.79,3.79,0,0,0,2.52-.75,2.54,2.54,0,0,0,.88-2,2.57,2.57,0,0,0-.85-2,3.52,3.52,0,0,0-2.4-.75h-2.68Z"/><path class="cls-5" d="M432.13,415.41h3.62v18.16h-3.62Z"/><path class="cls-5" d="M459,418.63h-5v-3.22h13.62v3.22h-5v14.94H459Z"/><path class="cls-5" d="M500.18,415.41l-6,10.18v8h-3.63v-8l-6-10.18h4.12l3.7,6.63h.05l3.66-6.63Z"/></svg>