<?xml version="1.0" encoding="UTF-8" standalone="no"?>
<!-- Created with Inkscape (http://www.inkscape.org/) -->

<svg
   width="52.916668mm"
   height="55.114346mm"
   viewBox="0 0 52.916668 55.114346"
   version="1.1"
   id="svg5"
   xml:space="preserve"
   inkscape:version="1.2.1 (9c6d41e410, 2022-07-14)"
   sodipodi:docname="logo.svg"
   xmlns:inkscape="http://www.inkscape.org/namespaces/inkscape"
   xmlns:sodipodi="http://sodipodi.sourceforge.net/DTD/sodipodi-0.dtd"
   xmlns="http://www.w3.org/2000/svg"
   xmlns:svg="http://www.w3.org/2000/svg"><sodipodi:namedview
     id="namedview7"
     pagecolor="#ffffff"
     bordercolor="#000000"
     borderopacity="0.25"
     inkscape:showpageshadow="2"
     inkscape:pageopacity="0.0"
     inkscape:pagecheckerboard="0"
     inkscape:deskcolor="#d1d1d1"
     inkscape:document-units="mm"
     showgrid="false"
     inkscape:zoom="1.4912879"
     inkscape:cx="59.344678"
     inkscape:cy="126.06553"
     inkscape:window-width="1920"
     inkscape:window-height="1017"
     inkscape:window-x="-8"
     inkscape:window-y="-8"
     inkscape:window-maximized="1"
     inkscape:current-layer="layer1" /><defs
     id="defs2" /><g
     inkscape:label="Capa 1"
     inkscape:groupmode="layer"
     id="layer1"
     transform="translate(-40.961025,-28.896503)"><path
       style="fill:#03096d;stroke:none;stroke-width:0.264583"
       d="m 66.361026,30.86087 c -5.014992,0.660088 -9.692508,1.893152 -13.758334,5.091806 -9.580129,7.536842 -12.681257,22.284267 -5.70447,32.626301 1.561121,2.31431 5.346409,1.927754 7.511627,3.872971 1.716167,1.541727 2.075312,4.028281 3.619447,5.471319 2.700206,2.523331 9.437159,2.378604 12.829646,1.96215 C 82.127018,78.501381 91.481891,68.864727 92.26638,57.471504 93.222055,43.594795 81.190922,28.908913 66.361026,30.86087 m -4.7625,12.05855 c 0,5.906902 1.315667,13.645092 -0.380948,19.314584 -1.367948,4.571206 -5.66838,5.819775 -9.937803,5.027083 v -3.704166 c 8.536014,2.705893 6.35,-10.706498 6.35,-15.610418 0,-1.14292 -0.470773,-3.665114 0.271939,-4.60285 0.646933,-0.816848 2.766986,-0.424233 3.696812,-0.424233 m 9.789583,15.610417 v 8.73125 c -0.929746,0 -3.049852,0.392642 -3.696758,-0.424127 -0.742765,-0.937948 -0.271992,-3.459956 -0.271992,-4.602956 V 50.06317 c 0,-1.378744 -0.761444,-6.586299 0.832908,-7.059639 3.448844,-1.023885 10.489142,-0.390551 13.178632,2.082377 4.023783,3.699933 2.048404,10.540127 -2.634456,12.56075 -2.270655,0.979752 -4.983428,0.883179 -7.408334,0.883179 m 0,-12.170834 v 8.731251 c 1.996811,0 4.314031,0.337873 6.081448,-0.792322 2.440252,-1.560592 2.586302,-5.868696 0,-7.386082 -1.684073,-0.987848 -4.205023,-0.552847 -6.081448,-0.552847 z"
       id="path179" /><circle
       style="fill:#0b997c;fill-opacity:1;stroke-width:0.465092"
       id="path233"
       cx="49.156322"
       cy="78.010849"
       r="6" /></g></svg>
