<svg id="Capa_1" data-name="Capa 1" xmlns="http://www.w3.org/2000/svg" viewBox="0 0 536.9 436.97"><defs><style>.cls-1{fill:#fff;}.cls-2{fill:#ffcf01;}.cls-3{fill:#130c0e;}</style></defs><path class="cls-1" d="M74.31,370.55a41.87,41.87,0,0,1-30.74,12.73,42,42,0,0,1-30.84-12.73,43.6,43.6,0,0,1,0-61.58,42,42,0,0,1,30.84-12.73A41.87,41.87,0,0,1,74.31,309L62,321.31a25.11,25.11,0,0,0-18.41-7.66,25.19,25.19,0,0,0-18.5,7.66,26,26,0,0,0,0,36.9,25.19,25.19,0,0,0,18.5,7.66A25.11,25.11,0,0,0,62,358.21Z"/><path class="cls-1" d="M84.56,348.46V298.72H102v49.74A16.85,16.85,0,0,0,107,360.75a17.44,17.44,0,0,0,29.75-12.29V298.72h17.4v49.74a34.81,34.81,0,0,1-34.81,34.82,34.81,34.81,0,0,1-34.82-34.82Z"/><path class="cls-1" d="M176.79,355.63q8,10.25,18.1,10.24a18.63,18.63,0,0,0,9.65-2.24,7.3,7.3,0,0,0,3.78-6.71c-.19-2.65-1.69-4.64-4.47-6l-19.2-4.68a30.2,30.2,0,0,1-14.23-9,20.45,20.45,0,0,1-5.37-13.68q0-12.43,8.7-19.89A30.16,30.16,0,0,1,194,296.24q17.7,0,29.25,12.93L209.72,320a19.33,19.33,0,0,0-14.83-6.36q-6,0-9.2,2.48a7.36,7.36,0,0,0-3.23,6q0,5,6.76,7.86l19.3,4.58q17.22,6.46,17.21,22.38a25.22,25.22,0,0,1-7.95,18.45q-8,7.92-22.89,7.91-20.28,0-32.43-17.9Z"/><path class="cls-1" d="M288.3,298.72v17.41H268.4v64.66H251V316.13H231.1V298.72Z"/><path class="cls-1" d="M366.56,309a43.6,43.6,0,1,1-30.74-12.73A41.9,41.9,0,0,1,366.56,309Zm-30.74,4.68a26.15,26.15,0,1,0,18.41,7.66A25.18,25.18,0,0,0,335.82,313.65Z"/><path class="cls-1" d="M389.16,380.79V298.72h33.62a41,41,0,0,1,0,82.07Zm17.41-64.66v47.26h16.21a23.63,23.63,0,0,0,0-47.26Z"/><path class="cls-1" d="M507.06,350v30.83H489.65V350L459.8,298.72H480l18.4,31.64,18.41-31.64H536.9Z"/><path class="cls-2" d="M406.78,83.4q-11.94-8.54-34.43-8.54H243.11l-3.72,23.71h123q9.6,0,14.21,3t4.62,9.59q-.17,10.11-7.06,14.38T357,129.78H314.62a21.57,21.57,0,0,0-21.3,18.2l-6.92,43.87h36.71l6.06-38.36h31.19q27.18,0,42.77-11.94t15.6-33.91Q418.73,92,406.78,83.4Z"/><path class="cls-2" d="M252.24,101.88l-7,43.94q-3.5,22.5-24.76,22.49a35,35,0,0,1-17.09-4l-4.53.53-3.84,26q11.86,3.31,31.91,3.32,47.43,0,54.52-44.74l7.52-47.5Z"/><path class="cls-1" d="M283.44,32.94s26,42.93,113.93,25.16c0,0-83.3-.37-106.93-58.1C242.27,57.73,158.81,58.1,158.81,58.1S103.9,209.31,231,279.6c0,0,65.53-29.72,101.28-74.87,0,0-45.47,34-96.45,52.15,0,0-95.76-51.55-62.09-179.59C249.44,67.62,283.44,32.94,283.44,32.94Z"/><path class="cls-1" d="M177,130.35a202.62,202.62,0,0,1,7-43.59s13.64-.94,43.69-9.3c0,0-6,5.54-38.1,14.19C189.59,91.65,180.18,111.56,177,130.35Z"/><path class="cls-1" d="M237.49,243.31a152.34,152.34,0,0,1-25.49-20s20.5,10.64,25.87,13.79c0,0,9.85-.62,36-9.52C273.84,227.62,256.83,236.16,237.49,243.31Z"/><circle class="cls-2" cx="335.77" cy="339.76" r="11.75"/><polygon class="cls-2" points="532.01 399.92 4.89 399.92 19.65 436.98 517.25 436.98 532.01 399.92"/><path class="cls-3" d="M38.22,409.66h6.71a8.32,8.32,0,0,1,2.85.45,4.91,4.91,0,0,1,2,1.27,5.5,5.5,0,0,1,1.13,1.91,7.4,7.4,0,0,1,.37,2.42,6.74,6.74,0,0,1-.47,2.6,4.72,4.72,0,0,1-1.36,1.85,6,6,0,0,1-2.09,1.09,9.7,9.7,0,0,1-2.73.36H41.76v6.21H38.22Zm5.93,8.76a3.71,3.71,0,0,0,2.51-.75,2.52,2.52,0,0,0,.87-2,2.6,2.6,0,0,0-.84-2,3.52,3.52,0,0,0-2.39-.74H41.76v5.56Z"/><path class="cls-3" d="M79.22,427.82l-4.07-6.21H73.06v6.21H69.52V409.66h6.86a8.2,8.2,0,0,1,2.83.45,5,5,0,0,1,2,1.27,5.5,5.5,0,0,1,1.13,1.91,7.15,7.15,0,0,1,.38,2.42,6.64,6.64,0,0,1-.45,2.53A4.87,4.87,0,0,1,81,420.07a5.57,5.57,0,0,1-2,1.11v.05l4.49,6.59Zm-6.16-9.38h2.52a3.8,3.8,0,0,0,2.53-.76,2.53,2.53,0,0,0,.88-2,2.57,2.57,0,0,0-.85-2,3.58,3.58,0,0,0-2.41-.74H73.06Z"/><path class="cls-3" d="M101.68,409.66h3.62v18.16h-3.62Z"/><path class="cls-3" d="M140,409.66l-6.72,18.16h-3.17l-6.74-18.16h3.89l4.4,13h0l4.45-13Z"/><path class="cls-3" d="M166.19,424.19h-7L158,427.82h-3.75L161,409.66h3.47l6.75,18.16h-3.76Zm-1.05-3.07L162.7,414h0l-2.42,7.13Z"/><path class="cls-3" d="M191.18,412.88h-5v-3.22H199.8v3.22h-5v14.94h-3.58Z"/><path class="cls-3" d="M217.86,409.66h11.61v3.22h-8.06v4.36h6.46v3.17h-6.46v4.21H230v3.2H217.86Z"/><path class="cls-3" d="M272.56,427.33a9.57,9.57,0,0,1-3.1-2.15l2.16-2.66a6.85,6.85,0,0,0,1.08,1,6.58,6.58,0,0,0,1.16.71,6,6,0,0,0,1.16.41,4.84,4.84,0,0,0,1.12.14,3.61,3.61,0,0,0,1.44-.25,1.93,1.93,0,0,0,.88-.67,1.78,1.78,0,0,0,.29-1,1.92,1.92,0,0,0-.12-.71,1.84,1.84,0,0,0-.35-.55,2.31,2.31,0,0,0-.64-.47,7.57,7.57,0,0,0-.86-.41c-.3-.12-.7-.27-1.19-.43l-1.17-.44a10.42,10.42,0,0,1-1.11-.51,7.53,7.53,0,0,1-1-.61,7,7,0,0,1-.87-.73,4.57,4.57,0,0,1-.7-.92,4.67,4.67,0,0,1-.43-1.11,4.87,4.87,0,0,1-.17-1.34,4.73,4.73,0,0,1,.77-2.62,5.47,5.47,0,0,1,2.11-1.87,6.58,6.58,0,0,1,2.95-.7,9.24,9.24,0,0,1,6.12,2.28L280,414.44a6.51,6.51,0,0,0-4-1.78,2.43,2.43,0,0,0-1.57.48,1.68,1.68,0,0,0-.62,1.34,1.36,1.36,0,0,0,.13.61,1.63,1.63,0,0,0,.33.49,2.44,2.44,0,0,0,.63.45,8.11,8.11,0,0,0,.84.41c.28.13.66.28,1.13.46a31.25,31.25,0,0,1,3,1.29,4.73,4.73,0,0,1,2.26,2.28,5.21,5.21,0,0,1,.35,2,5.54,5.54,0,0,1-.39,2.11,4.79,4.79,0,0,1-1,1.58,6.48,6.48,0,0,1-1.48,1.08,7.06,7.06,0,0,1-1.73.63,8.44,8.44,0,0,1-1.81.2A9.15,9.15,0,0,1,272.56,427.33Z"/><path class="cls-3" d="M300.89,409.66H312.5v3.22h-8.07v4.36h6.47v3.17h-6.47v4.21H313v3.2H300.89Z"/><path class="cls-3" d="M336.63,427.64a8.74,8.74,0,0,1-4.55-3,8,8,0,0,1-1.34-2.57,10.36,10.36,0,0,1-.49-3.26,11.09,11.09,0,0,1,.39-3,8.5,8.5,0,0,1,1.16-2.56,8.61,8.61,0,0,1,1.88-2,8.28,8.28,0,0,1,2.58-1.33,10.58,10.58,0,0,1,3.24-.47,9.1,9.1,0,0,1,5,1.49,9.64,9.64,0,0,1,2.2,2l-2.63,2.25a6.78,6.78,0,0,0-2.05-1.67,5.3,5.3,0,0,0-2.55-.64,5.57,5.57,0,0,0-1.3.14,5.21,5.21,0,0,0-1.17.4,5.36,5.36,0,0,0-1,.65,5,5,0,0,0-.84.88,5.67,5.67,0,0,0-1,2.38,7.08,7.08,0,0,0-.14,1.48,6.37,6.37,0,0,0,.69,3,5,5,0,0,0,1.95,2.07,5.73,5.73,0,0,0,5.41.12,6.35,6.35,0,0,0,2-1.67l2.63,2.26a9.28,9.28,0,0,1-3.1,2.5,8.93,8.93,0,0,1-4.13.94A10.86,10.86,0,0,1,336.63,427.64Z"/><path class="cls-3" d="M369,427.52a6.3,6.3,0,0,1-3.8-3.92,9.42,9.42,0,0,1-.53-3.29V409.66h3.6v10.41a6.24,6.24,0,0,0,.43,2.36,3.64,3.64,0,0,0,1.28,1.63,3.65,3.65,0,0,0,4.75-.62,5,5,0,0,0,1.05-3.37V409.66h3.59v10.65a9.13,9.13,0,0,1-.86,4.09,6.23,6.23,0,0,1-2.54,2.69,8,8,0,0,1-4,1A8.45,8.45,0,0,1,369,427.52Z"/><path class="cls-3" d="M408.17,427.82l-4.07-6.21H402v6.21h-3.54V409.66h6.86a8.2,8.2,0,0,1,2.83.45,5,5,0,0,1,2,1.27,5.5,5.5,0,0,1,1.13,1.91,7.15,7.15,0,0,1,.38,2.42,6.64,6.64,0,0,1-.45,2.53,5,5,0,0,1-1.27,1.83,5.7,5.7,0,0,1-2,1.11v.05l4.49,6.59ZM402,418.44h2.53a3.79,3.79,0,0,0,2.52-.76,2.53,2.53,0,0,0,.88-2,2.57,2.57,0,0,0-.85-2,3.57,3.57,0,0,0-2.4-.74H402Z"/><path class="cls-3" d="M430.63,409.66h3.62v18.16h-3.62Z"/><path class="cls-3" d="M457.46,412.88h-5v-3.22h13.62v3.22h-5v14.94h-3.58Z"/><path class="cls-3" d="M498.68,409.66l-6,10.19v8H489v-8l-6-10.19h4.12l3.7,6.63h.05l3.66-6.63Z"/></svg>