<?xml version="1.0" encoding="UTF-8" standalone="no"?>
<!-- Generator: Adobe Illustrator 25.2.1, SVG Export Plug-In . SVG Version: 6.00 Build 0)  -->

<svg
   version="1.1"
   id="Capa_1"
   x="0px"
   y="0px"
   viewBox="0 0 841.89 595.28"
   style="enable-background:new 0 0 841.89 595.28;"
   xml:space="preserve"
   sodipodi:docname="jp costrucred logo 2022.svg"
   inkscape:version="1.2.1 (9c6d41e410, 2022-07-14)"
   xmlns:inkscape="http://www.inkscape.org/namespaces/inkscape"
   xmlns:sodipodi="http://sodipodi.sourceforge.net/DTD/sodipodi-0.dtd"
   xmlns="http://www.w3.org/2000/svg"
   xmlns:svg="http://www.w3.org/2000/svg"><defs
   id="defs167" /><sodipodi:namedview
   id="namedview165"
   pagecolor="#ffffff"
   bordercolor="#000000"
   borderopacity="0.25"
   inkscape:showpageshadow="2"
   inkscape:pageopacity="0.0"
   inkscape:pagecheckerboard="0"
   inkscape:deskcolor="#d1d1d1"
   showgrid="false"
   inkscape:zoom="0.71862119"
   inkscape:cx="647.07249"
   inkscape:cy="123.84828"
   inkscape:window-width="1920"
   inkscape:window-height="1057"
   inkscape:window-x="-8"
   inkscape:window-y="-8"
   inkscape:window-maximized="1"
   inkscape:current-layer="g68" />
<style
   type="text/css"
   id="style2">
	.st0{fill:#2E4C81;}
	.st1{fill:#DA7E2F;}
	.st2{fill:url(#SVGID_1_);}
	.st3{fill:url(#SVGID_2_);}
	.st4{fill:url(#SVGID_3_);}
	.st5{fill:url(#SVGID_4_);}
	.st6{fill:#1295D7;}
</style>
<g
   id="g162">
	<g
   id="g68">
		<g
   id="g26">
			<path
   class="st0"
   d="M184.38,345.87c-1.1,0.35-2.09,0.84-2.94,1.44c-0.85,0.6-1.59,1.3-2.21,2.08c-0.6,0.76-1.09,1.58-1.46,2.42     c-0.37,0.83-0.64,1.68-0.82,2.53c-0.17,0.84-0.26,1.65-0.26,2.4v18.9c0,1.36,0.18,2.61,0.53,3.72c0.35,1.11,0.83,2.1,1.44,2.96     c0.6,0.85,1.3,1.59,2.09,2.2c0.76,0.59,1.57,1.07,2.41,1.44c0.83,0.37,1.68,0.64,2.53,0.82c0.85,0.17,1.65,0.26,2.4,0.26h26.79     v-10.19H188.1c-0.45,0-0.77-0.09-0.95-0.27c-0.18-0.18-0.27-0.5-0.27-0.94V356.8c0-0.28,0.03-0.79,0.25-1.01     c0.21-0.21,0.64-0.25,0.96-0.25h26.79v-10.19H188.1C186.73,345.34,185.48,345.52,184.38,345.87z"
   id="path4" />
			<path
   class="st0"
   d="M256.3,349.82c-1.58-1.57-3.47-2.81-5.61-3.69c-2.14-0.88-4.5-1.33-7.01-1.33h-9.45     c-2.51,0-4.87,0.45-7.02,1.33c-2.16,0.88-4.05,2.12-5.63,3.69c-1.58,1.57-2.83,3.46-3.72,5.63c-0.89,2.16-1.34,4.54-1.34,7.07     v7.36c0,2.55,0.45,4.93,1.34,7.08c0.89,2.16,2.14,4.05,3.72,5.62c1.58,1.58,3.48,2.82,5.63,3.7c2.15,0.87,4.51,1.31,7.02,1.31     h9.45c2.51,0,4.87-0.44,7.01-1.31c2.15-0.87,4.04-2.12,5.62-3.69c1.58-1.58,2.82-3.47,3.71-5.63c0.88-2.15,1.33-4.53,1.33-7.08     v-7.36c0-2.52-0.45-4.9-1.33-7.06C259.13,353.28,257.88,351.39,256.3,349.82z M234.23,354.99h9.45c1.13,0,2.18,0.18,3.1,0.55     c0.91,0.36,1.69,0.86,2.32,1.49c0.65,0.65,1.13,1.41,1.49,2.32c0.36,0.93,0.55,1.99,0.55,3.16v7.36c0,1.17-0.18,2.23-0.55,3.16     c-0.36,0.92-0.85,1.68-1.5,2.32c-0.65,0.64-1.44,1.14-2.34,1.5c-0.93,0.36-1.98,0.55-3.13,0.55h-9.4c-1.15,0-2.21-0.18-3.13-0.55     c-0.91-0.36-1.7-0.86-2.34-1.5c-0.65-0.65-1.14-1.4-1.5-2.32c-0.36-0.92-0.55-1.99-0.55-3.16v-7.36c0-1.17,0.18-2.23,0.55-3.16     c0.36-0.91,0.85-1.67,1.5-2.32c0.65-0.64,1.43-1.14,2.34-1.5C232.02,355.18,233.07,354.99,234.23,354.99z"
   id="path6" />
			<path
   class="st0"
   d="M296.52,370.07l-22.75-23.73c-0.73-0.76-1.62-1.24-2.65-1.44c-1-0.19-1.99-0.09-3.01,0.32     c-0.89,0.41-1.63,1.03-2.19,1.85c-0.59,0.85-0.89,1.81-0.89,2.86v37.13h10.19v-24.73l22.74,23.74c0.51,0.54,1.11,0.93,1.78,1.18     c0.61,0.23,1.24,0.34,1.86,0.34c0.7,0,1.36-0.13,1.99-0.39c0.62-0.26,1.17-0.63,1.63-1.08c0.45-0.45,0.82-1,1.09-1.61     c0.28-0.63,0.42-1.32,0.42-2.04v-37.13h-10.19V370.07z"
   id="path8" />
			<path
   class="st0"
   d="M349.65,366.6c-0.67-0.97-1.45-1.81-2.32-2.5c-0.85-0.67-1.75-1.24-2.69-1.68     c-0.94-0.44-1.89-0.78-2.85-0.99c-0.94-0.21-1.85-0.33-2.79-0.35h-16.06c-0.87,0-1.51-0.22-1.94-0.67     c-0.45-0.47-0.67-1.15-0.67-2.07c0-0.91,0.23-1.6,0.69-2.11c0.27-0.3,0.77-0.69,1.92-0.69h25.37v-10.19h-25.37     c-1.29,0-2.67,0.23-4.12,0.68c-1.49,0.46-2.9,1.21-4.18,2.24c-1.29,1.04-2.37,2.4-3.21,4.03c-0.86,1.66-1.29,3.69-1.29,6.04     c0,2.34,0.43,4.38,1.29,6.05c0.84,1.65,1.93,3.01,3.22,4.04c1.27,1.02,2.67,1.76,4.17,2.23c1.45,0.45,2.84,0.68,4.12,0.68h16.06     c0.43,0,0.82,0.07,1.16,0.21c0.31,0.12,0.56,0.29,0.77,0.52c0.22,0.24,0.39,0.52,0.51,0.85c0.13,0.36,0.2,0.77,0.2,1.22     c0,0.91-0.22,1.58-0.68,2.07c-0.43,0.46-1.07,0.68-1.96,0.68h-28.54v10.19h28.54c0.86,0,1.79-0.1,2.73-0.3     c0.96-0.2,1.92-0.52,2.85-0.94c0.93-0.43,1.84-0.98,2.7-1.64c0.9-0.69,1.7-1.54,2.36-2.52c0.66-0.97,1.19-2.09,1.59-3.33     c0.4-1.25,0.6-2.67,0.6-4.2c0-1.53-0.2-2.94-0.58-4.18C350.85,368.69,350.32,367.57,349.65,366.6z"
   id="path10" />
			<polygon
   class="st0"
   points="351.03,355.53 366.44,355.53 366.44,387.05 376.63,387.05 376.63,355.53 392.02,355.53      392.02,345.34 351.03,345.34    "
   id="polygon12" />
			<path
   class="st0"
   d="M427.43,373.06c1.07-0.49,2.1-1.12,3.07-1.87c1-0.77,1.89-1.72,2.65-2.8c0.76-1.09,1.37-2.35,1.81-3.76     c0.44-1.4,0.66-3,0.66-4.75v-4.46c0-1.01-0.17-2.1-0.51-3.23c-0.35-1.18-0.93-2.28-1.73-3.29c-0.81-1.02-1.86-1.88-3.13-2.55     c-1.3-0.68-2.88-1.03-4.69-1.03h-26.5c-0.71,0-1.39,0.13-2.01,0.39c-0.63,0.26-1.19,0.64-1.65,1.12     c-0.45,0.47-0.81,1.02-1.07,1.63c-0.26,0.62-0.39,1.29-0.39,1.99v36.59h10.19v-12.59h5.61l14.55,12.59H440l-15.14-13.08     C425.72,373.76,426.58,373.45,427.43,373.06z M404.13,355.53h21.3v4.36c0,0.7-0.11,1.31-0.31,1.82c-0.2,0.5-0.48,0.91-0.84,1.25     c-0.38,0.36-0.85,0.65-1.38,0.87c-0.57,0.23-1.22,0.38-1.8,0.43h-16.98V355.53z"
   id="path14" />
			<path
   class="st0"
   d="M470.16,376.86H459.5c-0.19,0-0.6-0.03-1.21-0.09c-0.59-0.06-1.3-0.2-2.11-0.42     c-0.8-0.22-1.65-0.57-2.55-1.03c-0.83-0.43-1.61-1.04-2.32-1.81c-0.71-0.77-1.3-1.75-1.77-2.92c-0.47-1.16-0.7-2.64-0.7-4.4     v-20.86h-10.19v20.86c0,2.4,0.29,4.62,0.87,6.59c0.58,1.98,1.39,3.77,2.42,5.32c1.02,1.55,2.24,2.91,3.61,4.04     c1.35,1.12,2.82,2.05,4.35,2.78c1.53,0.72,3.13,1.26,4.77,1.61c1.62,0.34,3.25,0.52,4.84,0.52h15.73c0.7,0,1.37-0.13,1.99-0.39     c0.61-0.26,1.16-0.62,1.63-1.07c0.48-0.47,0.85-1.02,1.11-1.65c0.26-0.62,0.39-1.3,0.39-2.01v-36.59h-10.19V376.86z"
   id="path16" />
			<path
   class="st0"
   d="M492.44,345.87c-1.1,0.35-2.09,0.84-2.95,1.44c-0.85,0.6-1.59,1.3-2.21,2.08c-0.6,0.76-1.09,1.58-1.47,2.42     c-0.37,0.83-0.64,1.68-0.81,2.53c-0.17,0.84-0.26,1.65-0.26,2.41v18.9c0,1.36,0.18,2.61,0.53,3.72c0.35,1.11,0.83,2.1,1.44,2.97     c0.6,0.85,1.31,1.59,2.09,2.2c0.76,0.58,1.57,1.07,2.41,1.44c0.83,0.37,1.68,0.64,2.53,0.82c0.84,0.17,1.65,0.26,2.4,0.26h26.79     v-10.19h-26.79c-0.45,0-0.77-0.09-0.94-0.27c-0.18-0.18-0.27-0.5-0.27-0.94V356.8c0-0.28,0.03-0.79,0.26-1.01     c0.21-0.21,0.64-0.25,0.96-0.25h26.79v-10.19h-26.79C494.78,345.34,493.54,345.52,492.44,345.87z"
   id="path18" />
			<path
   class="st1"
   d="M559.82,373.06c1.07-0.49,2.1-1.12,3.07-1.87c1-0.77,1.89-1.72,2.65-2.8c0.76-1.09,1.37-2.35,1.81-3.76     c0.44-1.4,0.66-3,0.66-4.75v-4.46c0-1.01-0.17-2.1-0.51-3.23c-0.35-1.18-0.93-2.28-1.73-3.29c-0.81-1.02-1.86-1.88-3.13-2.55     c-1.3-0.68-2.88-1.03-4.69-1.03h-26.5c-0.71,0-1.39,0.13-2.01,0.39c-0.63,0.26-1.19,0.64-1.65,1.12     c-0.45,0.47-0.81,1.02-1.06,1.62c-0.26,0.62-0.4,1.29-0.4,1.99v36.59h10.19v-12.59h5.61l14.55,12.59h15.71l-15.14-13.08     C558.12,373.76,558.98,373.45,559.82,373.06z M536.53,355.53h21.3v4.36c0,0.7-0.1,1.31-0.31,1.83c-0.2,0.5-0.47,0.91-0.84,1.25     c-0.38,0.36-0.85,0.65-1.38,0.87c-0.57,0.23-1.22,0.38-1.8,0.43h-16.97V355.53z"
   id="path20" />
			<path
   class="st1"
   d="M574.77,345.73c-0.63,0.26-1.19,0.64-1.65,1.11c-0.46,0.47-0.82,1.02-1.07,1.63     c-0.26,0.62-0.39,1.29-0.39,1.99v25.19c0,2.06,0.39,3.86,1.16,5.32c0.75,1.44,1.72,2.63,2.86,3.54c1.14,0.9,2.39,1.57,3.73,1.96     c1.29,0.38,2.51,0.58,3.63,0.58h26.79v-10.19h-26.74c-0.33,0-0.78-0.04-0.98-0.25c-0.21-0.21-0.26-0.64-0.26-0.96v-4.33h24.84     v-10.25h-24.84v-5.54h27.98v-10.19h-33.05C576.07,345.34,575.39,345.47,574.77,345.73z"
   id="path22" />
			<path
   class="st1"
   d="M653.65,355.98c-0.89-2.17-2.15-4.06-3.72-5.63c-1.58-1.57-3.47-2.81-5.63-3.69     c-2.15-0.88-4.52-1.33-7.03-1.33h-18.85c-0.71,0-1.39,0.13-2.01,0.39c-0.63,0.26-1.19,0.64-1.65,1.12     c-0.45,0.47-0.81,1.02-1.06,1.62c-0.26,0.62-0.4,1.29-0.4,1.99v31.47c0,0.72,0.13,1.4,0.39,2.01c0.26,0.62,0.62,1.18,1.08,1.64     c0.46,0.46,1.01,0.82,1.63,1.08c0.62,0.26,1.3,0.4,2.02,0.4h18.85c2.51,0,4.87-0.45,7.03-1.33c2.16-0.88,4.05-2.12,5.63-3.69     c1.58-1.57,2.83-3.45,3.72-5.61c0.89-2.15,1.34-4.54,1.34-7.09v-6.28C654.99,360.52,654.54,358.15,653.65,355.98z M637.27,376.86     h-13.78v-21.33h13.78c1.15,0,2.21,0.18,3.13,0.55c0.91,0.35,1.7,0.86,2.34,1.5c0.64,0.63,1.14,1.41,1.5,2.32     c0.36,0.94,0.55,2,0.55,3.15v6.28c0,1.17-0.18,2.23-0.55,3.16c-0.35,0.9-0.86,1.68-1.5,2.32c-0.66,0.65-1.42,1.14-2.35,1.5     C639.48,376.68,638.43,376.86,637.27,376.86z"
   id="path24" />
		</g>
		<rect
   x="178.29"
   y="400"
   class="st1"
   width="475.09"
   height="3.12"
   id="rect28" />
		<g
   id="g66">
			<g
   id="g44">
				<linearGradient
   id="SVGID_1_"
   gradientUnits="userSpaceOnUse"
   x1="346.5941"
   y1="125.4844"
   x2="344.8044"
   y2="241.2598">
					<stop
   offset="0"
   style="stop-color:#1295D7"
   id="stop30" />
					<stop
   offset="1"
   style="stop-color:#2E4C81"
   id="stop32" />
				</linearGradient>
				<path
   class="st2"
   d="M405.09,259.03c0.53-2.94,0.98-5.97,1.34-9.11l12.85-131.16h-61.3h-23.76l-5.1,50.98h23.76l-8.42,84.11      c-0.01,0.02-0.02,0.04-0.02,0.07c-3.79,12.38-11.31,18.72-22.55,19.01l-45.68,0.15l-5.24,49.81h61.99      c1.57-0.08,3.1-0.19,4.62-0.33c37.57-3.34,60.01-24.16,67.32-62.43C404.96,259.77,405.03,259.4,405.09,259.03z"
   id="path35" />
				<linearGradient
   id="SVGID_2_"
   gradientUnits="userSpaceOnUse"
   x1="485.8806"
   y1="123.9382"
   x2="484.6524"
   y2="203.391">
					<stop
   offset="0"
   style="stop-color:#1295D7"
   id="stop37" />
					<stop
   offset="1"
   style="stop-color:#2E4C81"
   id="stop39" />
				</linearGradient>
				<path
   class="st3"
   d="M499.38,118.76h-76.76h0l-4.99,50.98h0h1.68h71.05c12.24,1.85,17.5,8.18,15.8,19.01      c-1.7,10.83-8.13,16.19-19.3,16.1l-67.55,0.26v0.03h-5.15l-2.15,21.95l-3.13,31.94h80.16c42.24-2.52,65.66-25.97,70.28-70.35      C563.93,144.3,543.95,121,499.38,118.76z"
   id="path42" />
			</g>
			<g
   id="g53">
				<linearGradient
   id="SVGID_3_"
   gradientUnits="userSpaceOnUse"
   x1="407.5797"
   y1="315.0338"
   x2="568.3461"
   y2="216.1369">
					<stop
   offset="0.2536"
   style="stop-color:#D35C32"
   id="stop46" />
					<stop
   offset="1"
   style="stop-color:#E39B31"
   id="stop48" />
				</linearGradient>
				<path
   class="st4"
   d="M550.05,241.32l3.41-6.09l4.54-8.14l-31.02-19.82c0,0,0,0,0,0.01c3.53,7.62,6,16.49,7.71,24.83      c0,0.02,0,0.03,0,0.05c0.01,0.01,0.01,0.01,0.02,0.02c3.24,15.85,3.79,29.8,3.79,29.8l5.76-10.31      c4.84,17.65-2.66,31.88-21.65,38.96c-2.63,0.99-5.52,1.85-8.54,2.57c-3.99,0.95-8.12,1.72-12.34,2.33      c-2.44,0.36-4.91,0.66-7.42,0.92c-0.13,0.01-0.26,0.03-0.39,0.04c-0.54,0.06-1.07,0.11-1.62,0.16      c-3.05,0.26-6.18,0.42-9.33,0.51c-2.08,0.06-4.17,0.11-6.29,0.09c-4.2-0.03-8.5-0.23-12.87-0.56c-2.61-0.2-5.26-0.47-7.93-0.79      c-15.91-1.9-32.74-5.92-50.24-12.3c-2.8-1.03-5.63-2.13-8.48-3.28c-4.84-1.96-9.7-4.05-14.63-6.38l-11.33,0.52      c8.39,4.17,17.06,7.89,25.83,11.24c2.84,1.08,5.69,2.12,8.55,3.11c16.62,5.77,33.52,10.02,49.81,12.64      c2.54,0.41,5.09,0.82,7.6,1.15c2.03,0.27,4.02,0.46,6.03,0.68c5.05,0.54,10.01,0.94,14.86,1.15c3.14,0.12,6.22,0.19,9.25,0.17      c11.8-0.04,22.76-1.16,32.38-3.43c3.38-0.8,6.56-1.77,9.49-2.87C562.78,287.93,566.73,266.09,550.05,241.32z"
   id="path51" />
			</g>
			<g
   id="g64">
				<g
   id="g62">
					<linearGradient
   id="SVGID_4_"
   gradientUnits="userSpaceOnUse"
   x1="291.0996"
   y1="140.9775"
   x2="330.5049"
   y2="257.0932">
						<stop
   offset="0.0668"
   style="stop-color:#D35C32"
   id="stop55" />
						<stop
   offset="1"
   style="stop-color:#E39B31"
   id="stop57" />
					</linearGradient>
					<path
   class="st5"
   d="M360.25,263.62l-2.65-3.37l-3.74-4.77l-5.55-7.07l-0.85-1.08l-2.09-2.67l-17.52-22.34l-0.32-0.41       l-1.43-1.81l-0.2-0.26l-0.18-0.24l-2.37-3.01l-1.86,12.38l-1.08,7.19v0c-0.29-0.22-0.53-0.45-0.81-0.68       c-1.69-1.36-3.35-2.73-4.91-4.09c-34.89-30.46-39.18-60.61-6.38-72.83c2.64-0.99,5.52-1.84,8.54-2.57       c3.24-0.76,6.68-1.34,10.25-1.79l0.91-9.12c-8.14,0.36-15.74,1.32-22.61,2.95c-3.39,0.8-6.6,1.76-9.53,2.85       c-39.61,14.78-30.72,52.96,17.44,89.69c1.86,1.42,3.81,2.84,5.79,4.26v0.01l-1.04,6.89l-1.44,9.54l8.13,0.79l5.45,0.53l0.02,0       l1.36,0.13l4.35,0.42l3.98,0.39l6.28,0.61l5.05,0.48h0.01l1.39,0.14l9.16,0.88L360.25,263.62z"
   id="path60" />
				</g>
			</g>
		</g>
	</g>
	
</g>
</svg>
